<svg width="81" height="80" viewBox="0 0 81 80" fill="none" xmlns="http://www.w3.org/2000/svg">
<path d="M40.326 10.5156C40.326 10.5156 29.9479 20.6875 40.1362 34.7031C40.2153 34.6875 53.9315 24.5469 40.326 10.5156Z" fill="url(#paint0_linear_11_105)"/>
<path d="M16.2317 22.2187C16.2317 22.2187 17.6555 36.5937 35.0895 37.6406C35.1211 37.5781 35.8331 20.6719 16.2317 22.2187Z" fill="url(#paint1_linear_11_105)"/>
<path d="M9.53967 48.2344C9.53967 48.2344 22.2592 55.3594 33.7289 43.5312C33.7131 43.4687 20.4399 33.25 9.53967 48.2344Z" fill="url(#paint2_linear_11_105)"/>
<path d="M26.6415 69.4219C26.6415 69.4219 40.2628 64.1875 38.2219 47.9219C38.1586 47.8906 21.753 51.5938 26.6415 69.4219Z" fill="url(#paint3_linear_11_105)"/>
<path d="M53.884 69.4844C53.884 69.4844 58.377 55.5312 43.8065 47.25C43.7432 47.2969 36.2127 62.5156 53.884 69.4844Z" fill="url(#paint4_linear_11_105)"/>
<path d="M65.1481 22.3281C65.1481 22.3281 50.3877 20.9375 45.2778 36.75C45.3094 36.7969 61.9682 40.8594 65.1481 22.3281Z" fill="url(#paint5_linear_11_105)"/>
<path d="M72.0774 48.8281C72.0774 48.8281 62.1264 35.8281 47.0338 43.125C47.018 43.2031 56.3362 59.375 72.0774 48.8281Z" fill="url(#paint6_linear_11_105)"/>
<path d="M45.7998 22.5938C45.7998 29.8125 40.6266 35.6562 40.6266 35.6562C40.6266 35.6562 35.4533 29.8125 35.4533 22.5938C35.4533 15.375 40.6266 9.53125 40.6266 9.53125C40.6266 9.53125 45.7998 15.375 45.7998 22.5938Z" stroke="black" stroke-width="0.8" stroke-miterlimit="10" stroke-linecap="round" stroke-linejoin="round"/>
<path d="M28.8088 25.6094C34.5199 30.1094 35.928 37.75 35.928 37.75C35.928 37.75 28.0811 38.0937 22.3541 33.5937C16.6272 29.0937 15.235 21.4531 15.235 21.4531C15.235 21.4531 23.0977 21.1094 28.8088 25.6094Z" stroke="black" stroke-width="0.8" stroke-miterlimit="10" stroke-linecap="round" stroke-linejoin="round"/>
<path d="M20.6139 40.5938C27.733 38.9844 34.6623 42.6563 34.6623 42.6563C34.6623 42.6563 30.0428 48.9375 22.9078 50.5469C15.7887 52.1563 8.85938 48.4844 8.85938 48.4844C8.85938 48.4844 13.4789 42.2031 20.6139 40.5938Z" stroke="black" stroke-width="0.8" stroke-miterlimit="10" stroke-linecap="round" stroke-linejoin="round"/>
<path d="M27.3533 56.2812C30.5174 49.7812 37.7473 46.7188 37.7473 46.7188C37.7473 46.7188 39.8356 54.2031 36.6557 60.7031C33.4758 67.2031 26.2617 70.2656 26.2617 70.2656C26.2617 70.2656 24.1893 62.7812 27.3533 56.2812Z" stroke="black" stroke-width="0.8" stroke-miterlimit="10" stroke-linecap="round" stroke-linejoin="round"/>
<path d="M43.9805 60.8438C40.8164 54.3438 42.8889 46.8594 42.8889 46.8594C42.8889 46.8594 50.1187 49.9219 53.2828 56.4219C56.4469 62.9219 54.3744 70.4062 54.3744 70.4062C54.3744 70.4062 47.1445 67.3594 43.9805 60.8438Z" stroke="black" stroke-width="0.8" stroke-miterlimit="10" stroke-linecap="round" stroke-linejoin="round"/>
<path d="M57.9656 50.8594C50.8465 49.25 46.2111 42.9688 46.2111 42.9688C46.2111 42.9688 53.1404 39.2969 60.2596 40.9063C67.3787 42.5156 72.0141 48.7969 72.0141 48.7969C72.0141 48.7969 65.0848 52.4688 57.9656 50.8594Z" stroke="black" stroke-width="0.8" stroke-miterlimit="10" stroke-linecap="round" stroke-linejoin="round"/>
<path d="M58.7724 33.8437C53.0613 38.3437 45.1986 38 45.1986 38C45.1986 38 46.6066 30.3594 52.3177 25.8594C58.0289 21.3594 65.8916 21.7031 65.8916 21.7031C65.8916 21.7031 64.4836 29.3437 58.7724 33.8437Z" stroke="black" stroke-width="0.8" stroke-miterlimit="10" stroke-linecap="round" stroke-linejoin="round"/>
<path d="M45.762 41.4661C45.9963 38.6711 43.892 36.2177 41.062 35.9864C38.232 35.7551 35.748 37.8334 35.5138 40.6284C35.2796 43.4234 37.3839 45.8768 40.2138 46.1081C43.0438 46.3394 45.5278 44.2611 45.762 41.4661Z" stroke="black" stroke-width="0.8" stroke-miterlimit="10" stroke-linecap="round" stroke-linejoin="round"/>
<path d="M40.7373 38C41.0169 38 41.2436 37.7761 41.2436 37.5C41.2436 37.2239 41.0169 37 40.7373 37C40.4577 37 40.2311 37.2239 40.2311 37.5C40.2311 37.7761 40.4577 38 40.7373 38Z" fill="#8308F9"/>
<path d="M39.8988 39.8281C40.1784 39.8281 40.4051 39.6043 40.4051 39.3281C40.4051 39.052 40.1784 38.8281 39.8988 38.8281C39.6192 38.8281 39.3926 39.052 39.3926 39.3281C39.3926 39.6043 39.6192 39.8281 39.8988 39.8281Z" fill="black"/>
<path d="M43.9014 41.1875C44.181 41.1875 44.4076 40.9636 44.4076 40.6875C44.4076 40.4114 44.181 40.1875 43.9014 40.1875C43.6218 40.1875 43.3951 40.4114 43.3951 40.6875C43.3951 40.9636 43.6218 41.1875 43.9014 41.1875Z" fill="#1F1BCC"/>
<path d="M37.4309 42.7344C37.7105 42.7344 37.9371 42.5105 37.9371 42.2344C37.9371 41.9582 37.7105 41.7344 37.4309 41.7344C37.1513 41.7344 36.9246 41.9582 36.9246 42.2344C36.9246 42.5105 37.1513 42.7344 37.4309 42.7344Z" fill="#1F1BCC"/>
<path d="M41.2436 42.3438C41.5232 42.3438 41.7498 42.1199 41.7498 41.8438C41.7498 41.5676 41.5232 41.3438 41.2436 41.3438C40.964 41.3438 40.7373 41.5676 40.7373 41.8438C40.7373 42.1199 40.964 42.3438 41.2436 42.3438Z" fill="#F311F8"/>
<path d="M42.3668 44.0937C42.6464 44.0937 42.873 43.8699 42.873 43.5938C42.873 43.3176 42.6464 43.0938 42.3668 43.0938C42.0872 43.0938 41.8605 43.3176 41.8605 43.5938C41.8605 43.8699 42.0872 44.0937 42.3668 44.0937Z" fill="#10B3F9"/>
<path d="M41.1328 39.8281C41.4124 39.8281 41.6391 39.6043 41.6391 39.3281C41.6391 39.052 41.4124 38.8281 41.1328 38.8281C40.8532 38.8281 40.6266 39.052 40.6266 39.3281C40.6266 39.6043 40.8532 39.8281 41.1328 39.8281Z" fill="#1F1BCC"/>
<path d="M41.1328 41C41.4124 41 41.6391 40.7761 41.6391 40.5C41.6391 40.2239 41.4124 40 41.1328 40C40.8532 40 40.6266 40.2239 40.6266 40.5C40.6266 40.7761 40.8532 41 41.1328 41Z" fill="black"/>
<path d="M42.3668 41.1875C42.6464 41.1875 42.873 40.9636 42.873 40.6875C42.873 40.4114 42.6464 40.1875 42.3668 40.1875C42.0872 40.1875 41.8605 40.4114 41.8605 40.6875C41.8605 40.9636 42.0872 41.1875 42.3668 41.1875Z" fill="#10B3F9"/>
<path d="M42.0504 38.6094C42.33 38.6094 42.5566 38.3855 42.5566 38.1094C42.5566 37.8332 42.33 37.6094 42.0504 37.6094C41.7708 37.6094 41.5441 37.8332 41.5441 38.1094C41.5441 38.3855 41.7708 38.6094 42.0504 38.6094Z" fill="black"/>
<path d="M39.2502 38.25C39.5298 38.25 39.7565 38.0261 39.7565 37.75C39.7565 37.4739 39.5298 37.25 39.2502 37.25C38.9706 37.25 38.744 37.4739 38.744 37.75C38.744 38.0261 38.9706 38.25 39.2502 38.25Z" fill="#10B3F9"/>
<path d="M43.2211 42.5C43.5007 42.5 43.7273 42.2761 43.7273 42C43.7273 41.7239 43.5007 41.5 43.2211 41.5C42.9415 41.5 42.7148 41.7239 42.7148 42C42.7148 42.2761 42.9415 42.5 43.2211 42.5Z" fill="#8308F9"/>
<path d="M43.2211 39.8281C43.5007 39.8281 43.7273 39.6043 43.7273 39.3281C43.7273 39.052 43.5007 38.8281 43.2211 38.8281C42.9415 38.8281 42.7148 39.052 42.7148 39.3281C42.7148 39.6043 42.9415 39.8281 43.2211 39.8281Z" fill="#F311F8"/>
<path d="M39.2818 41C39.5614 41 39.7881 40.7761 39.7881 40.5C39.7881 40.2239 39.5614 40 39.2818 40C39.0022 40 38.7756 40.2239 38.7756 40.5C38.7756 40.7761 39.0022 41 39.2818 41Z" fill="#10B3F9"/>
<path d="M39.7881 42.2344C40.0677 42.2344 40.2944 42.0105 40.2944 41.7344C40.2944 41.4582 40.0677 41.2344 39.7881 41.2344C39.5085 41.2344 39.2819 41.4582 39.2819 41.7344C39.2819 42.0105 39.5085 42.2344 39.7881 42.2344Z" fill="black"/>
<path d="M38.7439 43.1094C39.0235 43.1094 39.2502 42.8855 39.2502 42.6094C39.2502 42.3332 39.0235 42.1094 38.7439 42.1094C38.4643 42.1094 38.2377 42.3332 38.2377 42.6094C38.2377 42.8855 38.4643 43.1094 38.7439 43.1094Z" fill="#10B3F9"/>
<path d="M38.649 39.3281C38.9286 39.3281 39.1553 39.1043 39.1553 38.8281C39.1553 38.552 38.9286 38.3281 38.649 38.3281C38.3694 38.3281 38.1428 38.552 38.1428 38.8281C38.1428 39.1043 38.3694 39.3281 38.649 39.3281Z" fill="#F311F8"/>
<path d="M37.6365 39.8281C37.9161 39.8281 38.1427 39.6043 38.1427 39.3281C38.1427 39.052 37.9161 38.8281 37.6365 38.8281C37.3569 38.8281 37.1302 39.052 37.1302 39.3281C37.1302 39.6043 37.3569 39.8281 37.6365 39.8281Z" fill="black"/>
<path d="M40.943 44C41.2226 44 41.4492 43.7761 41.4492 43.5C41.4492 43.2239 41.2226 43 40.943 43C40.6634 43 40.4367 43.2239 40.4367 43.5C40.4367 43.7761 40.6634 44 40.943 44Z" fill="#5810F1"/>
<path d="M39.2502 44.7812C39.5298 44.7812 39.7565 44.5574 39.7565 44.2813C39.7565 44.0051 39.5298 43.7812 39.2502 43.7812C38.9706 43.7812 38.744 44.0051 38.744 44.2813C38.744 44.5574 38.9706 44.7812 39.2502 44.7812Z" fill="#F311F8"/>
<path d="M37.6365 41.1875C37.9161 41.1875 38.1427 40.9636 38.1427 40.6875C38.1427 40.4114 37.9161 40.1875 37.6365 40.1875C37.3569 40.1875 37.1302 40.4114 37.1302 40.6875C37.1302 40.9636 37.3569 41.1875 37.6365 41.1875Z" fill="#8308F9"/>
<path d="M40.6266 34.2344L40.7373 26.2656" stroke="black" stroke-width="0.8" stroke-miterlimit="10" stroke-linecap="round" stroke-linejoin="round"/>
<path d="M35.0578 37.0156L28.5715 32.2812" stroke="black" stroke-width="0.8" stroke-miterlimit="10" stroke-linecap="round" stroke-linejoin="round"/>
<path d="M33.8871 42.7344L26.1193 44.8594" stroke="black" stroke-width="0.8" stroke-miterlimit="10" stroke-linecap="round" stroke-linejoin="round"/>
<path d="M37.3676 47.3594L33.8871 54.5469" stroke="black" stroke-width="0.8" stroke-miterlimit="10" stroke-linecap="round" stroke-linejoin="round"/>
<path d="M43.0945 46.7188L45.7049 54.2656" stroke="black" stroke-width="0.8" stroke-miterlimit="10" stroke-linecap="round" stroke-linejoin="round"/>
<path d="M47.1129 42.8906L54.675 45.6875" stroke="black" stroke-width="0.8" stroke-miterlimit="10" stroke-linecap="round" stroke-linejoin="round"/>
<path d="M45.5941 37.5L51.6849 32.2812" stroke="black" stroke-width="0.8" stroke-miterlimit="10" stroke-linecap="round" stroke-linejoin="round"/>
<defs>
<linearGradient id="paint0_linear_11_105" x1="40.9991" y1="10.5156" x2="40.9991" y2="34.7031" gradientUnits="userSpaceOnUse">
<stop stop-color="#8308F9"/>
<stop offset="0.96875" stop-color="#F908D2" stop-opacity="0.68"/>
</linearGradient>
<linearGradient id="paint1_linear_11_105" x1="25.6656" y1="22.1187" x2="25.6656" y2="37.6406" gradientUnits="userSpaceOnUse">
<stop stop-color="#8308F9"/>
<stop offset="0.96875" stop-color="#F908D2" stop-opacity="0.68"/>
</linearGradient>
<linearGradient id="paint2_linear_11_105" x1="21.6343" y1="40.0717" x2="21.6343" y2="50.3618" gradientUnits="userSpaceOnUse">
<stop stop-color="#8308F9"/>
<stop offset="0.96875" stop-color="#F908D2" stop-opacity="0.68"/>
</linearGradient>
<linearGradient id="paint3_linear_11_105" x1="32.0811" y1="47.9217" x2="32.0811" y2="69.4219" gradientUnits="userSpaceOnUse">
<stop stop-color="#8308F9"/>
<stop offset="0.96875" stop-color="#F908D2" stop-opacity="0.68"/>
</linearGradient>
<linearGradient id="paint4_linear_11_105" x1="48.3483" y1="47.25" x2="48.3483" y2="69.4844" gradientUnits="userSpaceOnUse">
<stop stop-color="#8308F9"/>
<stop offset="0.96875" stop-color="#F908D2" stop-opacity="0.68"/>
</linearGradient>
<linearGradient id="paint5_linear_11_105" x1="55.2129" y1="22.297" x2="55.2129" y2="37.1586" gradientUnits="userSpaceOnUse">
<stop stop-color="#8308F9"/>
<stop offset="0.96875" stop-color="#F908D2" stop-opacity="0.68"/>
</linearGradient>
<linearGradient id="paint6_linear_11_105" x1="59.5556" y1="40.9016" x2="59.5556" y2="52.3983" gradientUnits="userSpaceOnUse">
<stop stop-color="#8308F9"/>
<stop offset="0.96875" stop-color="#F908D2" stop-opacity="0.68"/>
</linearGradient>
</defs>
</svg>
