<svg width="69" height="57" viewBox="0 0 69 57" fill="none" xmlns="http://www.w3.org/2000/svg">
<path d="M60.9141 8.90625H8.08594C7.78945 8.90625 7.54688 9.10664 7.54688 9.35156V12.9141C7.54688 13.159 7.78945 13.3594 8.08594 13.3594H60.9141C61.2105 13.3594 61.4531 13.159 61.4531 12.9141V9.35156C61.4531 9.10664 61.2105 8.90625 60.9141 8.90625ZM60.9141 43.6406H8.08594C7.78945 43.6406 7.54688 43.841 7.54688 44.0859V47.6484C7.54688 47.8934 7.78945 48.0938 8.08594 48.0938H60.9141C61.2105 48.0938 61.4531 47.8934 61.4531 47.6484V44.0859C61.4531 43.841 61.2105 43.6406 60.9141 43.6406ZM60.9141 26.2734H8.08594C7.78945 26.2734 7.54688 26.4738 7.54688 26.7188V30.2812C7.54688 30.5262 7.78945 30.7266 8.08594 30.7266H60.9141C61.2105 30.7266 61.4531 30.5262 61.4531 30.2812V26.7188C61.4531 26.4738 61.2105 26.2734 60.9141 26.2734Z" fill="white"/>
</svg>
